<svg width="106.254" height="98" xmlns="http://www.w3.org/2000/svg" xml:space="preserve" version="1.1">

 <g>
  <title>Layer 1</title>
  <g id="svg_1" transform="matrix(-0.82213163,0,0,0.82213163,104.10836,9.5054284)">
   <g id="svg_2" transform="matrix(-0.83502688,0,0,0.83502688,168.1125,-23.806487)">
    <g id="svg_3">
     <path id="svg_4" d="m95.74593,62.69857l-0.01685,-12.53955l-41.90426,33.03327c0.06,3.9 -0.06001,8.39444 -0.00002,12.29444l41.90427,33.03327l-0.0337,-12.65361l-34.39425,-26.47233l34.44481,-26.69549z"/>
    </g>
   </g>
   <g id="svg_5" transform="matrix(0.83502688,0,0,0.83502688,-44.946342,-23.806486)">
    <g id="svg_6">
     <path id="svg_7" d="m95.74593,62.69857l-0.01685,-12.53955l-41.90426,33.03327c0.06,3.9 -0.06001,8.39444 -0.00002,12.29444l41.90427,33.03327l-0.0337,-12.65361l-34.39425,-26.47233l34.44481,-26.69549z"/>
    </g>
   </g>
  </g>
  <g id="svg_8" transform="matrix(-0.86345181,0,0,0.86345181,105.35785,6.2992609)">
   <path id="svg_9" d="m47.0902,18.00334l-9.1164,0l35.24437,65.81243l10.8324,0"/>
  </g>
 </g>
</svg>