
<svg width="363" height="512" xmlns="http://www.w3.org/2000/svg">
 <title>HTML5 Logo</title>

 <g>
  <title>Layer 1</title>
  <polygon id="svg_1" points="33.64399719238281,469.87701416015625 0.6330032348632812,99.62000274658203 363.36700439453125,99.62000274658203 330.3210144042969,469.8190002441406 181.7779998779297,511 " fill="#E44D26"/>
  <polygon id="svg_2" points="182,479.52301025390625 302.0299987792969,446.2460021972656 330.2699890136719,129.8939971923828 182,129.8939971923828 " fill="#F16529"/>
  <polygon id="svg_3" points="182,267.2170104980469 121.91000366210938,267.2170104980469 117.75999450683594,220.71600341796875 182,220.71600341796875 182,175.30499267578125 181.84300231933594,175.30499267578125 68.13200378417969,175.30499267578125 69.218994140625,187.48800659179688 80.3800048828125,312.62701416015625 182,312.62701416015625 " fill="#EBEBEB"/>
  <polygon id="svg_4" points="182,385.15301513671875 181.80099487304688,385.20599365234375 131.2270050048828,371.54998779296875 127.99400329589844,335.3330078125 103.41900634765625,335.3330078125 82.40899658203125,335.3330078125 88.77099609375,406.6340026855469 181.79100036621094,432.4570007324219 182,432.39898681640625 " fill="#EBEBEB"/>
  <path id="svg_5" d="m34.382,-1l23.077,0l0,22.8l21.11,0l0,-22.8l23.078,0l0,69.044l-23.077,0l0,-23.12l-21.11,0l0,23.12l-23.077,0l0,-69.044l-0.001,0z"/>
  <path id="svg_6" d="m131.994,21.896l-20.316,0l0,-22.896l63.72,0l0,22.896l-20.325,0l0,46.148l-23.078,0l0,-46.148l-0.001,0z"/>
  <path id="svg_7" d="m185.511,-1l24.063,0l14.802,24.26l14.787,-24.26l24.072,0l0,69.044l-22.982,0l0,-34.222l-15.877,24.549l-0.397,0l-15.888,-24.549l0,34.222l-22.58,0l0,-69.044z"/>
  <path id="svg_8" d="m274.72,-1l23.084,0l0,46.222l32.453,0l0,22.822l-55.537,0l0,-69.044z"/>
  <polygon id="svg_9" points="181.84300231933594,267.2170104980469 181.84300231933594,312.62701416015625 237.760986328125,312.62701416015625 232.489990234375,371.52099609375 181.84300231933594,385.1910095214844 181.84300231933594,432.43499755859375 274.93701171875,406.6340026855469 275.6199951171875,398.9620056152344 286.2909851074219,279.4110107421875 287.39898681640625,267.2170104980469 275.1619873046875,267.2170104980469 " fill="#FFFFFF"/>
  <polygon id="svg_10" points="181.84300231933594,175.30499267578125 181.84300231933594,203.50900268554688 181.84300231933594,220.60499572753906 181.84300231933594,220.71600341796875 291.385009765625,220.71600341796875 291.385009765625,220.71600341796875 291.531005859375,220.71600341796875 292.4419860839844,210.50900268554688 294.510986328125,187.48800659179688 295.59698486328125,175.30499267578125 " fill="#FFFFFF"/>
 </g>
</svg>