<?xml version="1.0" encoding="UTF-8"?>
<svg xmlns="http://www.w3.org/2000/svg" xmlns:xlink="http://www.w3.org/1999/xlink" width="170px" height="153px" viewBox="0 0 170 153" version="1.1">
<g id="surface1">
<path style=" stroke:none;fill-rule:nonzero;fill:rgb(100%,100%,100%);fill-opacity:1;" d="M 0.5 76.332031 C 0.5 89.117188 12.960938 101.046875 32.605469 107.773438 C 28.679688 127.554688 31.902344 143.5 42.65625 149.710938 C 53.707031 156.097656 70.175781 151.679688 85.804688 137.992188 C 101.039062 151.125 116.4375 156.292969 127.183594 150.0625 C 138.226562 143.660156 141.585938 126.632812 137.554688 106.234375 C 158.011719 99.457031 169.457031 89.285156 169.457031 76.332031 C 169.457031 63.847656 156.976562 53.046875 137.597656 46.363281 C 141.9375 25.121094 138.257812 9.566406 127.0625 3.09375 C 116.265625 -3.140625 100.6875 2.292969 85.226562 15.773438 C 69.144531 1.464844 53.722656 -2.902344 42.53125 3.585938 C 31.746094 9.839844 28.667969 26.074219 32.605469 46.222656 C 13.625 52.851562 0.5 63.898438 0.5 76.332031 Z M 0.5 76.332031 "/>
<path style=" stroke:none;fill-rule:nonzero;fill:rgb(32.54902%,75.686275%,87.058824%);fill-opacity:1;" d="M 133.492188 53 C 131.9375 52.464844 130.324219 51.957031 128.664062 51.476562 C 128.9375 50.359375 129.1875 49.257812 129.410156 48.175781 C 133.066406 30.394531 130.675781 16.074219 122.511719 11.355469 C 114.683594 6.835938 101.882812 11.550781 88.953125 22.820312 C 87.710938 23.90625 86.460938 25.050781 85.214844 26.253906 C 84.386719 25.460938 83.558594 24.691406 82.730469 23.957031 C 69.179688 11.902344 55.597656 6.824219 47.441406 11.554688 C 39.621094 16.089844 37.304688 29.554688 40.597656 46.402344 C 40.914062 48.03125 41.289062 49.691406 41.707031 51.382812 C 39.785156 51.929688 37.929688 52.511719 36.152344 53.132812 C 20.269531 58.679688 10.121094 67.375 10.121094 76.394531 C 10.121094 85.710938 21.011719 95.054688 37.558594 100.71875 C 38.867188 101.167969 40.21875 101.589844 41.617188 101.992188 C 41.164062 103.816406 40.769531 105.609375 40.4375 107.355469 C 37.300781 123.914062 39.75 137.058594 47.550781 141.566406 C 55.605469 146.21875 69.128906 141.4375 82.292969 129.910156 C 83.332031 128.996094 84.378906 128.03125 85.421875 127.019531 C 86.78125 128.324219 88.132812 129.5625 89.480469 130.726562 C 102.230469 141.71875 114.828125 146.15625 122.621094 141.636719 C 130.667969 136.972656 133.285156 122.847656 129.886719 105.664062 C 129.628906 104.351562 129.328125 103.011719 128.988281 101.648438 C 129.9375 101.367188 130.867188 101.074219 131.777344 100.773438 C 148.980469 95.066406 160.171875 85.835938 160.171875 76.394531 C 160.171875 67.34375 149.699219 58.589844 133.492188 53 Z M 133.492188 53 "/>
<path style=" stroke:none;fill-rule:nonzero;fill:rgb(100%,100%,100%);fill-opacity:1;" d="M 129.761719 94.679688 C 128.941406 94.949219 128.097656 95.214844 127.242188 95.46875 C 125.34375 89.445312 122.78125 83.042969 119.644531 76.425781 C 122.636719 69.96875 125.101562 63.644531 126.945312 57.664062 C 128.480469 58.109375 129.972656 58.578125 131.40625 59.070312 C 145.292969 63.859375 153.761719 70.941406 153.761719 76.394531 C 153.761719 82.207031 144.613281 89.75 129.761719 94.679688 Z M 123.597656 106.910156 C 125.101562 114.511719 125.316406 121.378906 124.320312 126.75 C 123.425781 131.574219 121.628906 134.792969 119.40625 136.082031 C 114.679688 138.824219 104.566406 135.257812 93.660156 125.859375 C 92.410156 124.78125 91.152344 123.628906 89.886719 122.410156 C 94.117188 117.78125 98.339844 112.394531 102.464844 106.414062 C 109.71875 105.769531 116.570312 104.714844 122.785156 103.277344 C 123.09375 104.511719 123.363281 105.726562 123.597656 106.910156 Z M 61.277344 135.605469 C 56.65625 137.242188 52.976562 137.289062 50.753906 136.003906 C 46.019531 133.269531 44.054688 122.714844 46.738281 108.554688 C 47.042969 106.933594 47.410156 105.265625 47.832031 103.5625 C 53.980469 104.925781 60.78125 105.90625 68.050781 106.496094 C 72.203125 112.347656 76.550781 117.726562 80.933594 122.4375 C 79.976562 123.363281 79.023438 124.242188 78.074219 125.074219 C 72.253906 130.171875 66.417969 133.789062 61.277344 135.605469 Z M 39.632812 94.644531 C 32.316406 92.136719 26.273438 88.882812 22.132812 85.328125 C 18.410156 82.136719 16.53125 78.96875 16.53125 76.394531 C 16.53125 70.921875 24.679688 63.941406 38.265625 59.195312 C 39.914062 58.621094 41.636719 58.078125 43.429688 57.566406 C 45.304688 63.6875 47.769531 70.082031 50.742188 76.550781 C 47.730469 83.117188 45.234375 89.613281 43.335938 95.804688 C 42.058594 95.4375 40.824219 95.050781 39.632812 94.644531 Z M 46.886719 45.171875 C 44.070312 30.734375 45.941406 19.84375 50.652344 17.109375 C 55.675781 14.199219 66.773438 18.351562 78.472656 28.757812 C 79.222656 29.421875 79.972656 30.117188 80.726562 30.839844 C 76.367188 35.527344 72.058594 40.867188 67.941406 46.683594 C 60.886719 47.339844 54.128906 48.390625 47.921875 49.800781 C 47.53125 48.226562 47.183594 46.683594 46.886719 45.171875 Z M 111.613281 61.179688 C 110.128906 58.613281 108.605469 56.101562 107.050781 53.664062 C 111.835938 54.269531 116.425781 55.074219 120.730469 56.058594 C 119.4375 60.210938 117.828125 64.550781 115.929688 69.003906 C 114.570312 66.414062 113.128906 63.804688 111.613281 61.179688 Z M 85.21875 35.425781 C 88.175781 38.636719 91.136719 42.21875 94.046875 46.105469 C 91.113281 45.964844 88.140625 45.894531 85.148438 45.894531 C 82.179688 45.894531 79.230469 45.964844 76.3125 46.101562 C 79.230469 42.25 82.214844 38.671875 85.21875 35.425781 Z M 58.65625 61.226562 C 57.171875 63.800781 55.757812 66.398438 54.417969 68.996094 C 52.550781 64.5625 50.957031 60.203125 49.652344 55.992188 C 53.933594 55.03125 58.496094 54.246094 63.253906 53.652344 C 61.679688 56.113281 60.140625 58.640625 58.65625 61.222656 Z M 63.390625 99.597656 C 58.476562 99.046875 53.84375 98.300781 49.5625 97.371094 C 50.886719 93.082031 52.519531 88.628906 54.425781 84.097656 C 55.769531 86.699219 57.1875 89.296875 58.679688 91.878906 C 60.199219 94.507812 61.773438 97.082031 63.390625 99.597656 Z M 85.394531 117.816406 C 82.359375 114.53125 79.328125 110.898438 76.367188 106.992188 C 79.242188 107.105469 82.171875 107.164062 85.148438 107.164062 C 88.207031 107.164062 91.230469 107.09375 94.203125 106.960938 C 91.28125 110.9375 88.332031 114.578125 85.394531 117.816406 Z M 115.992188 83.867188 C 117.996094 88.449219 119.6875 92.878906 121.03125 97.089844 C 116.679688 98.085938 111.980469 98.886719 107.03125 99.480469 C 108.589844 97.007812 110.128906 94.457031 111.636719 91.832031 C 113.167969 89.175781 114.617188 86.519531 115.992188 83.867188 Z M 106.085938 88.625 C 103.742188 92.699219 101.332031 96.589844 98.886719 100.257812 C 94.433594 100.578125 89.835938 100.742188 85.148438 100.742188 C 80.476562 100.742188 75.933594 100.597656 71.5625 100.3125 C 69.019531 96.59375 66.558594 92.691406 64.226562 88.660156 C 61.902344 84.636719 59.765625 80.582031 57.824219 76.550781 C 59.761719 72.507812 61.898438 68.445312 64.207031 64.433594 C 66.523438 60.40625 68.964844 56.527344 71.484375 52.828125 C 75.945312 52.492188 80.523438 52.316406 85.148438 52.316406 C 89.792969 52.316406 94.375 52.492188 98.835938 52.835938 C 101.316406 56.503906 103.738281 60.371094 106.066406 64.398438 C 108.417969 68.46875 110.578125 72.503906 112.535156 76.457031 C 110.585938 80.480469 108.429688 84.554688 106.085938 88.625 Z M 119.308594 16.917969 C 124.332031 19.824219 126.289062 31.527344 123.132812 46.878906 C 122.929688 47.859375 122.703125 48.855469 122.457031 49.867188 C 116.230469 48.429688 109.472656 47.359375 102.394531 46.691406 C 98.269531 40.8125 94 35.464844 89.710938 30.835938 C 90.863281 29.722656 92.015625 28.664062 93.160156 27.664062 C 104.238281 18.007812 114.59375 14.195312 119.308594 16.917969 Z M 119.308594 16.917969 "/>
<path style=" stroke:none;fill-rule:nonzero;fill:rgb(32.54902%,75.686275%,87.058824%);fill-opacity:1;" d="M 85.148438 62.972656 C 92.546875 62.972656 98.546875 68.980469 98.546875 76.394531 C 98.546875 83.808594 92.546875 89.816406 85.148438 89.816406 C 77.746094 89.816406 71.746094 83.808594 71.746094 76.394531 C 71.746094 68.980469 77.746094 62.972656 85.148438 62.972656 "/>
</g>
</svg>
